<?xml version="1.0" standalone="no"?>
<!DOCTYPE svg PUBLIC "-//W3C//DTD SVG 20010904//EN"
 "http://www.w3.org/TR/2001/REC-SVG-20010904/DTD/svg10.dtd">
<svg version="1.0" xmlns="http://www.w3.org/2000/svg"
 width="512.000000pt" height="512.000000pt" viewBox="0 0 512.000000 512.000000"
 preserveAspectRatio="xMidYMid meet">

<g transform="translate(0.000000,512.000000) scale(0.100000,-0.100000)"
fill="#000000" stroke="none">
<path d="M0 2560 l0 -2560 2560 0 2560 0 0 2560 0 2560 -2560 0 -2560 0 0
-2560z m3537 1342 c298 -250 515 -618 594 -1008 40 -204 38 -483 -7 -704 -51
-246 -196 -551 -352 -740 -87 -106 -206 -220 -228 -220 -22 0 -104 80 -104
101 0 7 42 55 93 108 153 159 220 253 308 434 213 444 208 960 -14 1402 -81
162 -158 267 -309 418 -76 77 -138 142 -138 146 0 11 51 85 68 99 23 18 25 17
89 -36z m-1076 -302 c19 -10 19 -33 19 -1038 0 -1055 0 -1052 -37 -1052 -7 0
-219 128 -471 285 l-459 285 -220 0 c-212 0 -221 1 -254 23 -18 12 -44 38 -57
57 l-23 34 3 372 c3 358 4 374 24 400 50 68 53 69 304 72 l229 3 457 285 c252
156 459 284 461 284 3 0 13 -5 24 -10z m848 -148 c246 -251 371 -552 371 -893
0 -208 -44 -392 -137 -574 -59 -117 -118 -198 -222 -307 -91 -96 -113 -112
-139 -103 -22 7 -72 78 -72 102 0 10 31 49 69 86 132 128 225 274 280 443 41
126 55 221 54 364 -2 304 -107 553 -325 773 -48 48 -88 92 -88 96 0 12 50 84
68 99 9 6 23 12 31 12 8 0 58 -44 110 -98z m-374 -300 c99 -81 189 -223 235
-367 30 -94 38 -281 17 -381 -33 -153 -107 -290 -222 -413 -84 -88 -106 -92
-159 -27 -20 23 -36 48 -36 54 0 6 25 34 56 64 78 73 148 184 180 282 22 66
27 101 27 186 0 188 -53 320 -185 454 -43 43 -78 86 -78 94 0 8 20 35 44 59
49 49 56 49 121 -5z"/>
</g>
</svg>
