<?xml version="1.0" standalone="no"?>
<!DOCTYPE svg PUBLIC "-//W3C//DTD SVG 20010904//EN"
 "http://www.w3.org/TR/2001/REC-SVG-20010904/DTD/svg10.dtd">
<svg version="1.0" xmlns="http://www.w3.org/2000/svg"
 width="512.000000pt" height="512.000000pt" viewBox="0 0 512.000000 512.000000"
 preserveAspectRatio="xMidYMid meet">
<metadata>
Created by potrace 1.14, written by Peter Selinger 2001-2017
</metadata>
<g transform="translate(0.000000,512.000000) scale(0.100000,-0.100000)"
fill="#000000" stroke="none">
<path d="M0 2560 l0 -2560 2560 0 2560 0 0 2560 0 2560 -2560 0 -2560 0 0
-2560z m3537 1342 c87 -73 231 -228 297 -321 166 -232 270 -493 312 -781 22
-155 15 -440 -16 -585 -59 -277 -187 -552 -353 -760 -77 -96 -211 -225 -233
-225 -22 0 -104 79 -104 100 0 6 46 59 103 119 130 136 214 255 288 406 67
137 102 236 129 368 75 357 34 700 -121 1027 -83 173 -166 288 -321 443 -76
77 -138 142 -138 146 0 11 51 85 68 99 23 18 25 17 89 -36z m-1076 -302 c19
-10 19 -33 19 -1038 0 -1057 0 -1052 -37 -1052 -8 0 -220 128 -472 285 l-458
285 -218 0 c-203 0 -220 1 -255 21 -21 12 -47 39 -59 60 -21 37 -22 45 -19
408 3 355 4 371 24 397 50 68 53 69 304 72 l229 3 457 285 c251 156 459 284
461 284 2 0 13 -5 24 -10z m845 -143 c194 -199 315 -429 359 -685 19 -110 19
-316 0 -428 -31 -175 -112 -371 -213 -512 -49 -71 -204 -237 -235 -253 -10 -6
-25 -8 -35 -4 -22 7 -72 78 -72 102 0 10 32 50 71 88 171 169 280 376 319 605
18 105 16 307 -5 405 -48 227 -145 406 -312 572 -46 46 -83 88 -83 94 0 14 46
78 68 97 9 6 23 12 31 12 9 0 57 -42 107 -93z m-423 -269 c113 -60 243 -246
293 -418 29 -102 27 -330 -4 -430 -45 -142 -123 -270 -224 -366 -75 -72 -83
-73 -134 -19 -24 25 -44 52 -44 60 0 9 27 41 60 72 212 199 266 510 132 768
-24 46 -63 97 -114 149 -43 43 -78 85 -78 93 0 12 76 103 87 103 2 0 14 -5 26
-12z m2214 -1020 c-3 -8 -6 -5 -6 6 -1 11 2 17 5 13 3 -3 4 -12 1 -19z"/>
</g>
</svg>
